<svg xmlns="http://www.w3.org/2000/svg" viewBox="0 0 32 32">
  <circle cx="16" cy="16" r="16" fill="#3D4A35"/>
  <g transform="translate(16 16) scale(0.0758) translate(-235 -260)">
    <path d="M 368 201 A 152 152 0 1 1 317 141" stroke="#D4A65F" stroke-width="22" stroke-linecap="round" fill="none"/>
    <path d="M 243 212 C 276 182, 310 157, 342 138" stroke="#A5AD98" stroke-width="20" stroke-linecap="round" fill="none"/>
    <path d="M 0 0 C -5 -8, -7 -22, 0 -38 C 7 -22, 5 -8, 0 0 Z" transform="translate(263 195) rotate(-62)" fill="#A5AD98"/>
    <path d="M 0 0 C -5 -8, -7 -22, 0 -38 C 7 -22, 5 -8, 0 0 Z" transform="translate(263 195) rotate(25)" fill="#A5AD98"/>
    <path d="M 0 0 C -3 -5, -5 -14, 0 -25 C 5 -14, 3 -5, 0 0 Z" transform="translate(303 164) rotate(-60)" fill="#A5AD98"/>
    <path d="M 0 0 C -3 -5, -5 -14, 0 -25 C 5 -14, 3 -5, 0 0 Z" transform="translate(303 164) rotate(28)" fill="#A5AD98"/>
    <ellipse cx="218" cy="336" rx="78" ry="42" fill="#B8AA90"/>
    <ellipse cx="218" cy="328" rx="74" ry="30" fill="#D4C8B0"/>
    <ellipse cx="215" cy="320" rx="62" ry="17" fill="#E8DDD0"/>
    <ellipse cx="218" cy="278" rx="54" ry="30" fill="#B8AA90"/>
    <ellipse cx="218" cy="271" rx="50" ry="21" fill="#D4C8B0"/>
    <ellipse cx="215" cy="264" rx="40" ry="13" fill="#E8DDD0"/>
    <ellipse cx="217" cy="228" rx="32" ry="18" fill="#B8AA90"/>
    <ellipse cx="217" cy="222" rx="29" ry="13" fill="#D4C8B0"/>
    <ellipse cx="215" cy="217" rx="22" ry="8" fill="#E8DDD0"/>
  </g>
</svg>
