<svg xmlns="http://www.w3.org/2000/svg" viewBox="0 0 32 32">
  <circle cx="16" cy="16" r="16" fill="#3D4A35"/>
  <g transform="translate(4 3) scale(0.048) translate(-80 -100)">
    <path d="M125 335 A170 170 0 0 1 375 125" stroke="#D4A65F" stroke-width="30" stroke-linecap="round" fill="none"/>
    <ellipse cx="230" cy="205" rx="32" ry="20" fill="#E8DDD0"/>
    <ellipse cx="230" cy="265" rx="58" ry="32" fill="#D8CCBE"/>
    <ellipse cx="230" cy="340" rx="86" ry="44" fill="#B7B49F"/>
    <path d="M330 170 C355 230 352 305 310 375" stroke="#A5AD98" stroke-width="35" stroke-linecap="round" fill="none"/>
    <ellipse cx="342" cy="195" rx="18" ry="45" transform="rotate(-30 342 195)" fill="#A5AD98"/>
    <ellipse cx="370" cy="250" rx="18" ry="45" transform="rotate(25 370 250)" fill="#A5AD98"/>
    <ellipse cx="350" cy="315" rx="18" ry="45" transform="rotate(-28 350 315)" fill="#A5AD98"/>
    <ellipse cx="305" cy="360" rx="18" ry="42" transform="rotate(35 305 360)" fill="#A5AD98"/>
    <path d="M140 390 C205 365 270 365 340 390" stroke="#A5AD98" stroke-width="40" stroke-linecap="round" fill="none"/>
  </g>
</svg>
