<svg xmlns="http://www.w3.org/2000/svg" viewBox="0 0 32 32">
  <circle cx="16" cy="16" r="16" fill="#3D4A35"/>
  <g transform="translate(3.6 2.8) scale(0.0787) translate(-75 -100)">
    <path d="M 360 175 A 152 152 0 1 1 311 130" stroke="#D4A65F" stroke-width="28" stroke-linecap="round" fill="none"/>
    <path d="M 245 215 C 278 185, 315 155, 335 132" stroke="#A5AD98" stroke-width="28" stroke-linecap="round" fill="none"/>
    <ellipse cx="250" cy="183" rx="7" ry="38" transform="rotate(-70 250 183)" fill="#A5AD98"/>
    <ellipse cx="277" cy="186" rx="7" ry="38" transform="rotate(-18 277 186)" fill="#A5AD98"/>
    <ellipse cx="275" cy="160" rx="6.5" ry="34" transform="rotate(-68 275 160)" fill="#A5AD98"/>
    <ellipse cx="303" cy="162" rx="6.5" ry="34" transform="rotate(-16 303 162)" fill="#A5AD98"/>
    <ellipse cx="220" cy="230" rx="30" ry="18" fill="#E8DDD0"/>
    <ellipse cx="220" cy="273" rx="52" ry="28" fill="#D8CCBE"/>
    <ellipse cx="220" cy="332" rx="78" ry="40" fill="#B7B49F"/>
  </g>
</svg>
