<svg xmlns="http://www.w3.org/2000/svg" viewBox="0 0 32 32">
  <!-- Fondo círculo olivo -->
  <circle cx="16" cy="16" r="16" fill="#3D4A35"/>

  <!-- Pétalo central -->
  <path d="M16 7 C16 7 13.2 11 13.2 14.8 C13.2 17 14.4 18.6 16 19.2 C17.6 18.6 18.8 17 18.8 14.8 C18.8 11 16 7 16 7Z" stroke="#D4AF7A" stroke-width="0.9" fill="none" stroke-linecap="round"/>

  <!-- Pétalo izquierdo interior -->
  <path d="M16 9 C16 9 10.5 11.5 10.5 16 C10.5 18.5 13 20.2 15.2 19.2" stroke="#D4AF7A" stroke-width="0.9" fill="none" stroke-linecap="round"/>

  <!-- Pétalo derecho interior -->
  <path d="M16 9 C16 9 21.5 11.5 21.5 16 C21.5 18.5 19 20.2 16.8 19.2" stroke="#D4AF7A" stroke-width="0.9" fill="none" stroke-linecap="round"/>

  <!-- Pétalo izquierdo exterior -->
  <path d="M16 11 C16 11 8 13 8 19 C8 21.5 11 23.5 14.5 21" stroke="#D4AF7A" stroke-width="0.8" fill="none" stroke-linecap="round"/>

  <!-- Pétalo derecho exterior -->
  <path d="M16 11 C16 11 24 13 24 19 C24 21.5 21 23.5 17.5 21" stroke="#D4AF7A" stroke-width="0.8" fill="none" stroke-linecap="round"/>

  <!-- Base curva -->
  <path d="M9 23.5 Q16 27 23 23.5" stroke="#D4AF7A" stroke-width="0.9" fill="none" stroke-linecap="round"/>

  <!-- Destello superior -->
  <circle cx="16" cy="5" r="1.2" fill="#D4AF7A"/>
</svg>
